<?xml version="1.0" encoding="UTF-8"?>
<svg data-bbox="-0.045 0 224.045 68" viewBox="0 0 224 68" height="68" width="224" xmlns="http://www.w3.org/2000/svg" data-type="color">
    <g>
        <path d="M75.734 67.405v-43.47h25.409v7.339H84.188v10h15.954v7.34H84.188v18.791zm39.479-43.471v30.393c0 4.18 1.833 6.325 5.938 6.325s6-2.144 6-6.324V23.935h8.44V54.4c0 9.574-5.758 13.6-14.439 13.6s-14.384-4.029-14.384-13.6V23.935h8.446m28.452 43.471V23.935h8.445v17.942h.124l10.961-17.943h9.237l-11.389 17.525 12.67 25.946h-9.487l-8.816-18.24-3.3 4.932v13.308h-8.445m42.96-43.471v30.393c0 4.18 1.821 6.325 5.925 6.325s6.008-2.144 6.008-6.324V23.935H207V54.4c0 9.574-5.753 13.6-14.453 13.6-8.681 0-14.379-4.029-14.379-13.6V23.935h8.454m28.934 0H224v43.481h-8.445V23.935Z" fill="#0058a7" fill-rule="evenodd" data-color="1"/>
        <path d="M38.4 19.036v10.878h10.981V8.158h-.01A10.935 10.935 0 0 0 38.4 19.036m-8.226 29.91V38.072h-10.99v21.75h.016a10.935 10.935 0 0 0 10.969-10.877m19.2-10.885H38.395v10.88a19.136 19.136 0 0 1-19.109 19.039h30.1V38.06h-.019M49.384 0v8.162a10.876 10.876 0 1 1 0 21.751v8.147a19.13 19.13 0 0 0 19.181-19.024A19.133 19.133 0 0 0 49.384 0m-30.2 59.818a10.875 10.875 0 1 1 0-21.75v-8.155a19.034 19.034 0 1 0 0 38.066v-8.157m30.2-21.762v-8.147zM48.992 0H19.184v29.91h10.985V19.036A19.14 19.14 0 0 1 48.992.007z" fill="#0058a7" fill-rule="evenodd" data-color="1"/>
        <path d="M79.076.887v11.9c0 1.636.724 2.476 2.33 2.476s2.356-.84 2.356-2.476V.887h3.317v11.928c0 3.749-2.263 5.326-5.673 5.326s-5.651-1.577-5.651-5.326V.887h3.32M90.44 17.906V.887h3.634l4.612 10.09h.044V.887h3.031v17.019h-3.172L93.515 6.921h-.044v10.985zM105.126.887h3.317V17.91h-3.317zm5.362 0h3.266l3.051 12.159h.05L119.878.887h3.246L118.7 17.906h-3.77zm14.49 17.019V.887h9.081V3.76h-5.764v3.916h4.4v2.872h-4.4v4.483h6.005v2.875h-9.325m23.358 0-3.27-7.59c1.856-.685 2.624-2.217 2.624-4.336 0-3.207-1.905-5.092-5.893-5.092h-4.804v17.018h3.319v-6.93h1.59l2.878 6.929h3.559m-8.027-14.333h1.706a2.093 2.093 0 0 1 2.355 2.36 2.087 2.087 0 0 1-2.355 2.356h-1.706zm17.377 2.049c-.555-1.6-1.274-2.283-2.431-2.283a1.687 1.687 0 0 0-1.826 1.871c0 2.563 7.405 2.746 7.405 8.078 0 2.92-2.043 4.854-5.526 4.854-2.693 0-4.787-1.436-5.671-4.787l3.264-.684c.387 2.052 1.586 2.787 2.571 2.787a1.937 1.937 0 0 0 2.049-2.029c0-3.208-7.4-3.254-7.4-8.012 0-2.926 1.777-4.769 5.214-4.769a5.15 5.15 0 0 1 5.337 4.129l-2.981.845m6.221-4.734h3.322V17.91h-3.322zm16.537 0V3.76h-3.871v14.146h-3.315V3.76h-3.869V.887zm7.21 6.862 2.813-6.862H194l-4.731 10.13v6.889h-3.319v-6.889L181.216.887h3.532l2.909 6.862m13.38 4.689c0 4.2 2.261 5.7 5.477 5.7s5.481-1.506 5.481-5.7V6.354c0-4.2-2.256-5.707-5.481-5.707s-5.477 1.507-5.477 5.707zm3.317-6.505c0-1.884.844-2.4 2.16-2.4s2.166.52 2.166 2.4v6.928c0 1.891-.84 2.4-2.166 2.4s-2.16-.511-2.16-2.4zm10.326 11.973V.887h8.658V3.76H218v3.916h4.934v2.872H218v7.358z" fill="#0058a7" fill-rule="evenodd" data-color="1"/>
    </g>
</svg>
